HIERARCHY
ROOT hip
{
	OFFSET 0.000000 0.000000 0.000000
	CHANNELS 6 Xposition Yposition Zposition Xrotation Zrotation Yrotation 
	JOINT abdomen
	{
		OFFSET 0.000000 3.422050 0.000000
		CHANNELS 3 Xrotation Zrotation Yrotation 
		JOINT chest
		{
			OFFSET 0.000000 8.486693 -0.684411
			CHANNELS 3 Xrotation Zrotation Yrotation 
			JOINT neck
			{
				OFFSET 0.000000 10.266162 -0.273764
				CHANNELS 3 Xrotation Zrotation Yrotation 
				JOINT head
				{
					OFFSET 0.000000 3.148285 0.000000
					CHANNELS 3 Xrotation Zrotation Yrotation 
					End Site
					{
						OFFSET 0.000000 3.148289 0.000000
					}
				}
			}
			JOINT lCollar
			{
				OFFSET 3.422053 6.707223 -0.821293
				CHANNELS 3 Yrotation Zrotation Xrotation 
				JOINT lShldr
				{
					OFFSET 3.285171 0.000000 0.000000
					CHANNELS 3 Zrotation Yrotation Xrotation 
					JOINT lForeArm
					{
						OFFSET 10.129278 0.000000 0.000000
						CHANNELS 3 Yrotation Zrotation Xrotation 
						JOINT lHand
						{
							OFFSET 8.486692 0.000000 0.000000
							CHANNELS 3 Zrotation Yrotation Xrotation 
							End Site
							{
								OFFSET 4.106464 0.000000 0.000000
							}
						}
					}
				}
			}
			JOINT rCollar
			{
				OFFSET -3.558935 6.707223 -0.821293
				CHANNELS 3 Yrotation Zrotation Xrotation 
				JOINT rShldr
				{
					OFFSET -3.148289 0.000000 0.000000
					CHANNELS 3 Zrotation Yrotation Xrotation 
					JOINT rForeArm
					{
						OFFSET -10.266159 0.000000 0.000000
						CHANNELS 3 Yrotation Zrotation Xrotation 
						JOINT rHand
						{
							OFFSET -8.349810 0.000000 0.000000
							CHANNELS 3 Zrotation Yrotation Xrotation 
							End Site
							{
								OFFSET -4.106464 0.000000 0.000000
							}
						}
					}
				}
			}
		}
	}
	JOINT lThigh
	{
		OFFSET 5.338403 -1.642589 1.368821
		CHANNELS 3 Xrotation Zrotation Yrotation 
		JOINT lShin
		{
			OFFSET -2.053232 -20.121670 0.000000
			CHANNELS 3 Xrotation Zrotation Yrotation 
			JOINT lFoot
			{
				OFFSET 0.000000 -19.300380 -1.231939
				CHANNELS 3 Xrotation Yrotation Zrotation 
				End Site
				{
					OFFSET 0.000000 -2.463878 4.653993
				}
			}
		}
	}
	JOINT rThigh
	{
		OFFSET -5.338403 -1.642589 1.368821
		CHANNELS 3 Xrotation Zrotation Yrotation 
		JOINT rShin
		{
			OFFSET 2.053232 -20.121670 0.000000
			CHANNELS 3 Xrotation Zrotation Yrotation 
			JOINT rFoot
			{
				OFFSET 0.000000 -19.300380 -1.231939
				CHANNELS 3 Xrotation Yrotation Zrotation 
				End Site
				{
					OFFSET 0.000000 -2.463878 4.653993
				}
			}
		}
	}
}
MOTION
Frames: 8
Frame Time: 0.022176
0.000000 10.922924 0.000000 85.702484 0.000000 0.000000 32.854591 -0.722668 -0.576660 -32.433475 -0.627813 -0.449299 15.998754 23.996824 -0.001971 22.996389 17.998446 -0.002864 -0.001347 -8.002656 -0.194655 -60.741528 -62.002594 -20.447052 -122.018135 -0.008075 53.997295 -7.000334 -0.003134 7.199666 -0.002182 7.999157 -0.194408 60.731537 61.998016 -20.454638 121.995705 -0.005257 54.000729 6.996620 -0.000135 7.199450 -142.123993 53.500736 -50.504192 132.448257 -2.389071 -0.187674 22.445566 2.891674 -6.438805 -142.138351 -53.503429 50.515026 132.445847 2.325058 0.215819 22.456913 -2.895755 6.436372 
0.000000 10.922924 0.000000 85.409088 0.000000 0.000000 33.225754 -0.722704 -0.576723 -32.433472 -0.627813 -0.449299 15.998754 23.996824 -0.001971 22.996389 17.998446 -0.002864 -0.001347 -8.002656 -0.194655 -60.741528 -62.002594 -20.447052 -122.018135 -0.008075 53.997295 -7.000333 -0.003134 7.199666 -0.002182 7.999156 -0.194408 60.731537 61.998016 -20.454638 121.995705 -0.005257 54.000729 6.996620 -0.000135 7.199450 -141.615524 53.606384 -50.274834 132.448257 -2.389071 -0.187675 22.340792 2.878047 -6.211880 -141.631592 -53.610046 50.287014 132.445847 2.325058 0.215819 22.363331 -2.882151 6.209753 
0.000000 10.922924 0.000000 85.115585 0.000000 0.000000 33.597103 -0.722739 -0.576787 -32.433472 -0.627813 -0.449299 15.998754 23.996824 -0.001971 22.996389 17.998446 -0.002864 -0.001347 -8.002656 -0.194655 -60.741528 -62.002594 -20.447052 -122.018135 -0.008075 53.997295 -7.000334 -0.003134 7.199666 -0.002182 7.999156 -0.194408 60.731537 61.998016 -20.454638 121.995705 -0.005257 54.000729 6.996620 -0.000135 7.199450 -141.104797 53.710865 -50.043217 132.448257 -2.389071 -0.187675 22.236055 2.864005 -5.984934 -141.122604 -53.715500 50.056740 132.445847 2.325058 0.215819 22.269787 -2.868175 5.983112 
0.000000 10.922924 0.000000 84.822014 0.000000 0.000000 33.968639 -0.722774 -0.576851 -32.433472 -0.627813 -0.449299 15.998754 23.996824 -0.001971 22.996389 17.998446 -0.002864 -0.001347 -8.002656 -0.194655 -60.741528 -62.002594 -20.447052 -122.018135 -0.008075 53.997295 -7.000334 -0.003134 7.199666 -0.002182 7.999156 -0.194408 60.731537 61.998016 -20.454638 121.995705 -0.005257 54.000729 6.996620 -0.000135 7.199450 -140.591858 53.814167 -49.809338 132.448257 -2.389071 -0.187675 22.131359 2.849544 -5.757972 -140.611374 -53.819759 49.824165 132.445847 2.325058 0.215819 22.176275 -2.853827 5.756450 
0.000000 10.922924 0.000000 84.528358 0.000000 0.000000 34.340332 -0.722809 -0.576915 -32.433472 -0.627813 -0.449299 15.998754 23.996824 -0.001971 22.996389 17.998446 -0.002864 -0.001347 -8.002656 -0.194655 -60.741528 -62.002594 -20.447052 -122.018135 -0.008075 53.997295 -7.000333 -0.003134 7.199665 -0.002182 7.999156 -0.194408 60.731537 61.998016 -20.454638 121.995705 -0.005257 54.000729 6.996620 -0.000135 7.199450 -140.076736 53.916264 -49.573238 132.448257 -2.389071 -0.187675 22.026695 2.834667 -5.530993 -140.097931 -53.922863 49.589378 132.445847 2.325058 0.215819 22.082819 -2.839107 5.529774 
0.000000 10.922924 0.000000 84.234634 0.000000 0.000000 34.712196 -0.722843 -0.576980 -32.433472 -0.627813 -0.449299 15.998754 23.996824 -0.001971 22.996389 17.998446 -0.002864 -0.001347 -8.002656 -0.194655 -60.741528 -62.002594 -20.447052 -122.018135 -0.008075 53.997295 -7.000333 -0.003134 7.199666 -0.002182 7.999156 -0.194408 60.731537 61.998016 -20.454638 121.995705 -0.005257 54.000729 6.996620 -0.000135 7.199450 -139.559433 54.017162 -49.334904 132.448257 -2.389071 -0.187675 21.922075 2.819373 -5.304003 -139.582321 -54.024754 49.352341 132.445847 2.325058 0.215819 21.989399 -2.824015 5.303084 
0.000000 10.922924 0.000000 83.940826 0.000000 0.000000 35.084213 -0.722876 -0.577045 -32.433472 -0.627813 -0.449299 15.998754 23.996824 -0.001971 22.996389 17.998446 -0.002864 -0.001347 -8.002656 -0.194655 -60.741528 -62.002594 -20.447052 -122.018135 -0.008075 53.997295 -7.000333 -0.003134 7.199666 -0.002182 7.999156 -0.194408 60.731537 61.998016 -20.454638 121.995705 -0.005257 54.000729 6.996620 -0.000135 7.199450 -139.039932 54.116814 -49.094357 132.448257 -2.389071 -0.187675 21.817501 2.803662 -5.077003 -139.064514 -54.125427 49.113075 132.445847 2.325058 0.215819 21.896023 -2.808551 5.076380 
0.000000 10.922924 0.000000 83.646935 0.000000 0.000000 35.456371 -0.722910 -0.577110 -32.433472 -0.627813 -0.449299 15.998754 23.996824 -0.001971 22.996389 17.998446 -0.002864 -0.001347 -8.002656 -0.194655 -60.741528 -62.002594 -20.447052 -122.018135 -0.008075 53.997295 -7.000333 -0.003134 7.199666 -0.002182 7.999156 -0.194408 60.731537 61.998016 -20.454638 121.995705 -0.005257 54.000729 6.996620 -0.000135 7.199450 -138.518280 54.215210 -48.851578 132.448257 -2.389071 -0.187675 21.712973 2.787535 -4.849996 -138.544510 -54.224850 48.871578 132.445847 2.325058 0.215819 21.802691 -2.792715 4.849668 
